# xmcd
#
# Track frame offsets: 
#        150
#        13190
#        29002
#        40617
#        55407
#        70687
#        89715
#        106395
#        123265
#        134500
#        150852
#        163020
#        179607
#        196512
#        214285
#
# Disc length: 3053 seconds
#
# Revision: 3
# Processed by: cddbd v1.5.1PL0 Copyright (c) Steve Scherf et al.
# Submitted via: ExactAudioCopy v0.95a5
#
DISCID=cf0beb0f
DTITLE=Various Country Artists - Country Heat Christmas
DYEAR=1996
DGENRE=
TTITLE0=Alan Jackson - Honky Tonk Christmas
TTITLE1=Lonestar - I'll Be Home For Christmas
TTITLE2=Lorrie Morgan - Let It Snow
TTITLE3=John anderson - The Christmas Song
TTITLE4=Alabama - Christmas Memories
TTITLE5=Keith Whitley - There's a New Kid In Town
TTITLE6=K.T. Olsin - Blue Christmas
TTITLE7=The Tractors - Santa Claus Is Coming To Town
TTITLE8=Aaron Tippin - Rudolph The Red-Nosed Reindeer
TTITLE9=Martina McBride - Oh Holy Night
TTITLE10=Clint Black - Til Santa's Gone
TTITLE11=Lori White - White Christmas
TTITLE12=Restless Heart - Little Drummer Boy
TTITLE13=Ray Vega - Take a Walk Through Bethlehem
TTITLE14=Joe Diffie - Leroy The Redneck Reindeer
EXTD=
EXTT0=
EXTT1=
EXTT2=
EXTT3=
EXTT4=
EXTT5=
EXTT6=
EXTT7=
EXTT8=
EXTT9=
EXTT10=
EXTT11=
EXTT12=
EXTT13=
EXTT14=
PLAYORDER=
